<svg width="32" height="21" viewBox="0 0 32 21" fill="none" xmlns="http://www.w3.org/2000/svg">
<g id="icon-battery" clip-path="url(#clip0_2_16)">
<path id="Vector" d="M29.655 4.33301H29.333V4.00001C29.3322 3.02788 28.9457 2.09577 28.2584 1.40828C27.5711 0.720783 26.6391 0.334067 25.667 0.333008H3.667C2.69469 0.333802 1.76244 0.720401 1.07492 1.40792C0.387393 2.09545 0.000794475 3.0277 0 4.00001L0 16.667C0.00105922 17.6391 0.387775 18.5711 1.07527 19.2584C1.76276 19.9458 2.69487 20.3322 3.667 20.333H25.667C26.639 20.3319 27.5708 19.9454 28.2581 19.2581C28.9454 18.5708 29.3319 17.639 29.333 16.667V16.333H29.655C30.2735 16.3322 30.8665 16.0862 31.3038 15.6488C31.7412 15.2115 31.9872 14.6185 31.988 14V6.66701C31.9875 6.04833 31.7415 5.45512 31.3042 5.01756C30.8668 4.57999 30.2737 4.3338 29.655 4.33301ZM9.333 15.333C9.333 15.5982 9.22764 15.8526 9.04011 16.0401C8.85257 16.2277 8.59822 16.333 8.333 16.333H5C4.73478 16.333 4.48043 16.2277 4.29289 16.0401C4.10536 15.8526 4 15.5982 4 15.333V5.33301C4 5.06779 4.10536 4.81344 4.29289 4.6259C4.48043 4.43836 4.73478 4.33301 5 4.33301H8.333C8.59822 4.33301 8.85257 4.43836 9.04011 4.6259C9.22764 4.81344 9.333 5.06779 9.333 5.33301V15.333ZM17.333 15.333C17.333 15.5982 17.2276 15.8526 17.0401 16.0401C16.8526 16.2277 16.5982 16.333 16.333 16.333H13C12.7348 16.333 12.4804 16.2277 12.2929 16.0401C12.1054 15.8526 12 15.5982 12 15.333V5.33301C12 5.06779 12.1054 4.81344 12.2929 4.6259C12.4804 4.43836 12.7348 4.33301 13 4.33301H16.333C16.5982 4.33301 16.8526 4.43836 17.0401 4.6259C17.2276 4.81344 17.333 5.06779 17.333 5.33301V15.333ZM25.333 15.333C25.333 15.5982 25.2276 15.8526 25.0401 16.0401C24.8526 16.2277 24.5982 16.333 24.333 16.333H21C20.7348 16.333 20.4804 16.2277 20.2929 16.0401C20.1054 15.8526 20 15.5982 20 15.333V5.33301C20 5.06779 20.1054 4.81344 20.2929 4.6259C20.4804 4.43836 20.7348 4.33301 21 4.33301H24.333C24.5982 4.33301 24.8526 4.43836 25.0401 4.6259C25.2276 4.81344 25.333 5.06779 25.333 5.33301V15.333Z" fill="white"/>
</g>
<defs>
<clipPath id="clip0_2_16">
<rect width="32" height="21" fill="white"/>
</clipPath>
</defs>
</svg>
