<svg width="32" height="32" viewBox="0 0 32 32" fill="none" xmlns="http://www.w3.org/2000/svg">
<g id="icon-light" clip-path="url(#clip0_2_8)">
<path id="Vector" d="M20 28V29.667C19.9968 30.2848 19.75 30.8764 19.3132 31.3132C18.8764 31.75 18.2848 31.9968 17.667 32H14.333C13.213 32 12 31.147 12 29.28V28H20ZM25.47 24.053L27.315 25.899C27.4078 25.9919 27.4815 26.1022 27.5317 26.2236C27.5819 26.3449 27.6077 26.475 27.6077 26.6064C27.6077 26.7377 27.5817 26.8678 27.5314 26.9891C27.4811 27.1104 27.4074 27.2207 27.3145 27.3135C27.2216 27.4063 27.1113 27.48 26.9899 27.5302C26.8686 27.5804 26.7385 27.6062 26.6071 27.6062C26.4758 27.6062 26.3457 27.5802 26.2244 27.5299C26.1031 27.4796 25.9928 27.4059 25.9 27.313L24.055 25.468C23.9621 25.3752 23.8884 25.2649 23.8381 25.1436C23.7878 25.0223 23.7618 24.8922 23.7618 24.7609C23.7618 24.6295 23.7876 24.4994 23.8378 24.3781C23.888 24.2567 23.9617 24.1464 24.0545 24.0535C24.1473 23.9606 24.2576 23.8869 24.3789 23.8366C24.5002 23.7863 24.6303 23.7603 24.7616 23.7603C24.893 23.7603 25.0231 23.7861 25.1444 23.8363C25.2658 23.8865 25.3771 23.9602 25.47 24.053ZM7.947 24.053C8.03998 24.1459 8.11374 24.2562 8.16406 24.3776C8.21438 24.499 8.24029 24.6291 8.24029 24.7605C8.24029 24.8919 8.21438 25.022 8.16406 25.1434C8.11374 25.2648 8.03998 25.3751 7.947 25.468L6.1 27.313C6.00735 27.4062 5.89719 27.4801 5.77585 27.5306C5.65452 27.5811 5.52441 27.607 5.393 27.607C5.26159 27.607 5.13148 27.5811 5.01015 27.5306C4.88881 27.4801 4.77865 27.4062 4.686 27.313C4.49853 27.1255 4.39321 26.8712 4.39321 26.606C4.39321 26.3408 4.49853 26.0865 4.686 25.899L6.531 24.053C6.62387 23.96 6.73416 23.8863 6.85556 23.8359C6.97696 23.7856 7.10708 23.7597 7.2385 23.7597C7.36992 23.7597 7.50004 23.7856 7.62144 23.8359C7.74284 23.8863 7.85413 23.96 7.947 24.053ZM14 6.88C16.813 6.28 19.693 6.973 21.88 8.747C22.9612 9.62087 23.8327 10.7261 24.4303 11.9813C25.0279 13.2365 25.3363 14.6098 25.333 16C25.333 18.88 24.027 21.547 21.773 23.333C20.853 24.053 20.253 24.987 20.067 26V26.013C20.04 26 20.027 26 20 26H12L11.953 26.002L11.907 26.013V26C11.72 24.947 11.173 24.04 10.387 23.453C7.48 21.253 6.12 17.653 6.867 14.027C7.6 10.493 10.467 7.613 14 6.88ZM31 15C31.2652 15 31.5196 15.1054 31.7071 15.2929C31.8946 15.4804 32 15.7348 32 16C32 16.2652 31.8946 16.5196 31.7071 16.7071C31.5196 16.8946 31.2652 17 31 17H28.39C28.1248 17 27.8704 16.8946 27.6829 16.7071C27.4954 16.5196 27.39 16.2652 27.39 16C27.39 15.7348 27.4954 15.4804 27.6829 15.2929C27.8704 15.1054 28.1248 15 28.39 15H31ZM3.61 15C3.87522 15 4.12957 15.1054 4.31711 15.2929C4.50464 15.4804 4.61 15.7348 4.61 16C4.61 16.2652 4.50464 16.5196 4.31711 16.7071C4.12957 16.8946 3.87522 17 3.61 17H1C0.734784 17 0.48043 16.8946 0.292893 16.7071C0.105357 16.5196 0 16.2652 0 16C0 15.7348 0.105357 15.4804 0.292893 15.2929C0.48043 15.1054 0.734784 15 1 15H3.61ZM16.333 10C15.787 10 15.333 10.453 15.333 11C15.333 11.547 15.787 12 16.333 12C16.8146 11.9997 17.2916 12.0944 17.7366 12.2786C18.1816 12.4628 18.586 12.7329 18.9265 13.0735C19.2671 13.414 19.5372 13.8184 19.7214 14.2634C19.9056 14.7084 20.0003 15.1854 20 15.667C20 16.213 20.453 16.667 21 16.667C21.547 16.667 22 16.213 22 15.667C21.9968 14.165 21.3988 12.7254 20.3367 11.6633C19.2746 10.6012 17.835 10.0032 16.333 10ZM27.315 4.685C27.408 4.77787 27.4817 4.88816 27.5321 5.00956C27.5824 5.13096 27.6083 5.26108 27.6083 5.3925C27.6083 5.52392 27.5824 5.65404 27.5321 5.77544C27.4817 5.89684 27.408 6.00713 27.315 6.1L25.469 7.945C25.2811 8.13174 25.0269 8.23655 24.762 8.23655C24.4971 8.23655 24.2429 8.13174 24.055 7.945C23.8675 7.75747 23.7622 7.50316 23.7622 7.238C23.7622 6.97284 23.8675 6.71853 24.055 6.531L25.9 4.685C25.9929 4.59202 26.1032 4.51826 26.2246 4.46794C26.346 4.41762 26.4761 4.39171 26.6075 4.39171C26.7389 4.39171 26.869 4.41762 26.9904 4.46794C27.1118 4.51826 27.2221 4.59202 27.315 4.685ZM6.101 4.685L7.947 6.531C8.13451 6.71864 8.2398 6.97308 8.2397 7.23835C8.23961 7.50362 8.13414 7.75799 7.9465 7.9455C7.75886 8.13301 7.50442 8.2383 7.23915 8.2382C6.97388 8.23811 6.71951 8.13264 6.532 7.945L4.687 6.1C4.59143 6.00782 4.51517 5.89753 4.46268 5.77556C4.41018 5.6536 4.3825 5.5224 4.38126 5.38962C4.38001 5.25684 4.40522 5.12515 4.45541 5.00222C4.50561 4.87929 4.57978 4.76758 4.67361 4.67362C4.76743 4.57967 4.87903 4.50533 5.00189 4.45497C5.12475 4.4046 5.25641 4.3792 5.38919 4.38026C5.52197 4.38132 5.65321 4.40881 5.77525 4.46113C5.89729 4.51346 6.00869 4.58956 6.101 4.685ZM16 0C16.2652 0 16.5196 0.105357 16.7071 0.292893C16.8946 0.48043 17 0.734784 17 1V3.61C17 3.87522 16.8946 4.12957 16.7071 4.31711C16.5196 4.50464 16.2652 4.61 16 4.61C15.7348 4.61 15.4804 4.50464 15.2929 4.31711C15.1054 4.12957 15 3.87522 15 3.61V1C15 0.734784 15.1054 0.48043 15.2929 0.292893C15.4804 0.105357 15.7348 0 16 0Z" fill="white"/>
</g>
<defs>
<clipPath id="clip0_2_8">
<rect width="32" height="32" fill="white"/>
</clipPath>
</defs>
</svg>
