<svg width="19" height="28" viewBox="0 0 19 28" fill="none" xmlns="http://www.w3.org/2000/svg">
<g id="icon-bluetooth" clip-path="url(#clip0_2_18)">
<path id="Vector" d="M11.9471 13.93L17.9211 7.93099C18.0928 7.75822 18.2242 7.54965 18.3059 7.32017C18.3876 7.0907 18.4176 6.84601 18.3937 6.6036C18.3698 6.36119 18.2927 6.12705 18.1678 5.91794C18.0428 5.70883 17.8732 5.52991 17.6711 5.39399L10.0761 0.281987C9.82655 0.113901 9.53606 0.016668 9.23561 0.000649757C8.93515 -0.0153685 8.63598 0.050428 8.36997 0.191028C8.10396 0.331628 7.88107 0.541764 7.72507 0.799044C7.56906 1.05632 7.48578 1.35111 7.4841 1.65199V9.59399L3.5331 5.59999C3.38128 5.44616 3.20057 5.32383 3.00135 5.24004C2.80212 5.15624 2.58831 5.11263 2.37218 5.1117C2.15605 5.11077 1.94187 5.15254 1.74193 5.23462C1.54199 5.3167 1.36023 5.43747 1.2071 5.58999C0.896046 5.89846 0.72025 6.31785 0.718374 6.75592C0.716499 7.19399 0.888698 7.61487 1.1971 7.92599L7.1501 13.928L1.1971 19.93C1.04421 20.0841 0.923194 20.2669 0.840953 20.4678C0.758711 20.6688 0.71686 20.8839 0.717789 21.1011C0.718717 21.3182 0.762408 21.533 0.846365 21.7332C0.930322 21.9334 1.0529 22.1151 1.2071 22.268C1.36017 22.4206 1.5419 22.5415 1.74185 22.6237C1.9418 22.7058 2.15601 22.7476 2.37218 22.7467C2.58835 22.7458 2.80219 22.7021 3.00143 22.6182C3.20066 22.5344 3.38135 22.4119 3.5331 22.258L7.4831 18.264V26.205C7.4831 26.815 7.8311 27.377 8.3701 27.664C8.63576 27.8049 8.93475 27.871 9.23507 27.8552C9.53539 27.8393 9.82575 27.7421 10.0751 27.574L17.6711 22.464C17.8731 22.3278 18.0426 22.1488 18.1674 21.9396C18.2922 21.7304 18.3693 21.4962 18.3932 21.2538C18.4171 21.0114 18.3871 20.7667 18.3055 20.5371C18.2239 20.3076 18.0927 20.0989 17.9211 19.926L11.9471 13.93ZM10.8361 4.75699L14.1941 7.01699L10.8361 10.389V4.75699ZM10.8361 23.105V17.473L14.1941 20.845L10.8361 23.105Z" fill="white"/>
</g>
<defs>
<clipPath id="clip0_2_18">
<rect width="19" height="28" fill="white"/>
</clipPath>
</defs>
</svg>
