<svg width="26" height="21" viewBox="0 0 26 21" fill="none" xmlns="http://www.w3.org/2000/svg">
<g id="icon-compatible" clip-path="url(#clip0_2_6)">
<path id="Vector" d="M15.673 17.755L17.926 20.694H7.51L9.763 17.755H15.673ZM23.183 0.449998C23.4404 0.449998 23.6953 0.500695 23.9331 0.599194C24.1709 0.697693 24.3869 0.842066 24.5689 1.02407C24.7509 1.20607 24.8953 1.42214 24.9938 1.65994C25.0923 1.89774 25.143 2.15261 25.143 2.41V14.49C25.143 14.7474 25.0923 15.0023 24.9938 15.2401C24.8953 15.4779 24.7509 15.6939 24.5689 15.8759C24.3869 16.0579 24.1709 16.2023 23.9331 16.3008C23.6953 16.3993 23.4404 16.45 23.183 16.45H1.96C1.70253 16.45 1.44757 16.3993 1.20971 16.3007C0.971847 16.2021 0.755734 16.0577 0.573718 15.8756C0.391702 15.6935 0.24735 15.4773 0.14891 15.2394C0.0504696 15.0015 -0.000130344 14.7465 1.0205e-06 14.489V2.41C-0.000261795 2.15244 0.0502412 1.89735 0.148623 1.65932C0.247004 1.4213 0.391335 1.20499 0.573364 1.02278C0.755393 0.840561 0.971551 0.696009 1.20948 0.597385C1.44741 0.498761 1.70244 0.447998 1.96 0.447998L23.183 0.449998Z" fill="white"/>
</g>
<defs>
<clipPath id="clip0_2_6">
<rect width="26" height="21" fill="white"/>
</clipPath>
</defs>
</svg>
